<?xml version="1.0" encoding="UTF-8" ?>
<svg id="Vrstva_1" xmlns="http://www.w3.org/2000/svg" viewBox="0 0 344.61 169.3">
	<defs>
		<style>
			.cls-1 {
			 fill: #fd3;
			}

		 .cls-2 {
			 fill: none;
			}

			.cls-3 {
				fill: #222;
			}
		</style>
	</defs>
	<path class="cls-2" d="M299.77,25.57h-21.68l13.24,11.61c4.53-3.23,9.65-5.45,14.17-6.94,0,0,.75-4.67-5.73-4.67Z" />
	<polygon class="cls-3" points="201.24 59.38 224.78 46.04 0 0 118.4 53.56 201.24 59.38" />
	<polygon class="cls-3" points="184.02 69.13 35.71 58.72 143.39 92.16 184.02 69.13" />
	<path class="cls-1" d="M140.09,167.57l91.27-51.41c-22.79,6.35-53.15,14.53-68.53,18.65l-22.74,32.76Z" />
	<path class="cls-3" d="M338.09,31.51c-1.45-.9-3.06-1.68-4.8-2.33-.58-.22-1.18-.42-1.79-.6-3.65-1.12-7.8-1.71-12.2-1.71-.37-3.23-1.58-5.71-3.26-7.62-.56-.64-1.17-1.21-1.82-1.72-.22-.17-.44-.33-.66-.49-.89-.63-1.85-1.16-2.82-1.61-.49-.22-.98-.42-1.48-.6s-.99-.34-1.49-.49c-.74-.22-1.48-.39-2.2-.53-.72-.14-1.42-.25-2.08-.32-.44-.05-.87-.09-1.28-.12-.61-.04-1.18-.06-1.7-.06h-79.3l15.39,12.78,18.52,15.39h0,0s-125.22,70.96-125.22,70.96l-72.26,56.87,29.14-13.38,63.47-29.14s80.09-21.39,101.48-27.91c4.01-1.22,7.19-2.53,9.84-4,.88-.49,1.71-1,2.49-1.53,1.17-.79,2.23-1.63,3.23-2.53,2.99-2.7,5.37-5.91,8.2-9.92.63-.89,1.28-1.82,1.96-2.79s1.4-1.99,2.16-3.04c.38-.53.77-1.07,1.18-1.62,1.21-1.66,2.54-3.42,4.02-5.3s3.11-3.87,4.94-5.98c.61-.71,1.24-1.42,1.89-2.16,13.7-15.41,25.37-19.69,36.27-20.97.52-.06,1.04-.11,1.55-.16,1.03-.1,2.06-.17,3.08-.22,4.08-.22,8.07-.17,12.05-.3-1.37-2.74-3.62-5.04-6.52-6.84ZM305.5,30.23c-4.52,1.49-9.65,3.71-14.17,6.94l-13.24-11.61h21.68c6.47,0,5.73,4.67,5.73,4.67Z" />
</svg>
